PathFileType	4	(X/Y/Z)	C:\Users\dbl\Desktop\20210112\20210112\bx_n_0_501-Unnamed.trc
DataRate	CameraRate	NumFrames	NumMarkers	Units	OrigDataRate	OrigDataStartFrame	OrigNumFrames
50.00	50.00	       18	0	mm	50.00	85	       339
Frame#	Time	
		

85	1.680				-730.62933	273.96063	742.02197										-876.12219	-78.89765	141.41621	-682.29230	20.49649	524.44592				-678.75507	155.57986	158.95247							-546.86603	212.79820	163.21320													-795.45392	181.58138	184.96674	-762.15790	225.31210	204.93616	-589.13068	182.94946	173.41682	-882.72327	296.05481	144.67613	-750.20068	246.94037	573.89539	-640.28900	274.03049	159.71175	-601.63629	274.20380	159.81421	-528.30585	304.11691	146.33821										-719.99921	76.45621	577.13086	-794.41296	32.31311	175.70496																			-720.91736	143.53221	219.95998													-518.00769	-72.99992	143.10075	
86	1.700				-731.63049	274.13318	741.65265										-876.12219	-78.89765	141.41621	-683.17871	20.48309	524.91638				-678.76563	155.63330	159.01974							-547.11743	212.81184	163.03174													-795.46613	181.46187	184.55768	-762.09509	225.38565	204.77386	-589.16901	182.96771	173.37770	-882.69696	296.30313	144.70746	-751.34253	246.68053	573.58234	-640.33282	274.05927	159.72948	-601.81512	274.10083	159.73184	-528.16870	304.17886	146.32680										-720.92499	76.62007	577.20001	-794.24927	32.45179	175.69569																			-720.77191	143.64391	220.07150													-517.94177	-72.92817	143.09164	
87	1.720				-732.33545	274.09790	741.76898										-876.33990	-78.88496	141.49979	-683.73376	20.51257	525.08588				-678.76563	155.63330	159.01974							-547.12830	212.80653	163.19794													-795.52209	181.49054	184.76379	-762.29761	225.55817	205.00879	-589.16901	182.96771	173.37770	-882.60834	296.06894	144.52896	-752.08600	247.20950	573.88031	-640.32300	274.12787	159.62764	-601.63629	274.20380	159.81421	-528.35187	304.34979	146.41586										-721.44366	76.49001	577.18726	-794.36475	32.32414	175.74651																			-721.33350	143.43779	219.85246													-517.94177	-72.92817	143.09164	
88	1.740				-733.68835	274.25485	741.44409										-876.12219	-78.89765	141.41621	-684.76227	20.76107	524.71497				-678.76563	155.63330	159.01974							-547.13330	212.80739	163.31543													-795.56445	181.43874	184.79742	-762.26093	225.53255	205.00127	-589.13068	182.94946	173.41682	-882.53406	296.09598	144.57982	-752.70135	247.18649	573.65173	-640.33881	273.94174	159.57051	-601.72656	274.14752	159.76643	-528.15491	304.03677	146.32214										-722.42456	76.77937	576.87146	-794.37970	32.29680	175.77753																			-721.21350	143.55203	219.82312													-517.92590	-72.87240	142.99782	
89	1.760				-734.96930	274.75253	741.76630										-876.12219	-78.89765	141.41621	-685.81262	20.58020	525.29053				-678.76563	155.63330	159.01974							-547.10083	212.71741	163.17400													-795.61804	181.47861	184.81194	-762.26093	225.53255	205.00127	-589.21912	182.83356	173.44896	-882.63263	296.08612	144.57532	-753.62659	247.04433	573.41461	-640.27930	273.96136	159.76814	-601.72656	274.14752	159.76643	-528.24139	304.00241	146.24747										-723.55505	76.59078	577.16534	-794.20892	32.31744	175.84102																			-721.44110	143.77274	219.64261													-518.06787	-73.13117	143.05104	
90	1.780				-735.91577	274.81909	741.74725										-876.12219	-78.89765	141.41621	-686.21045	20.47644	525.45697				-678.65045	155.75690	159.11520							-547.16187	212.75285	163.23453													-795.64441	181.54128	184.72633	-762.26093	225.53255	205.00127	-589.19250	182.90163	173.40820	-882.53406	296.09598	144.57982	-754.29376	246.60185	573.32587	-640.27930	273.96136	159.76814	-601.58472	274.07956	159.85051	-528.42279	304.29593	146.39896										-724.02234	77.12483	577.50818	-794.35718	32.40244	175.73962																			-720.93408	143.70688	220.12881													-518.02222	-72.83799	143.11696	
91	1.800				-736.89514	274.71631	741.24384										-876.12219	-78.89765	141.41621	-686.66364	20.77312	525.71729				-678.76563	155.63330	159.01974							-547.16888	212.69345	163.15732													-795.73749	181.61324	184.80156	-762.32056	225.62495	204.97014	-589.25586	182.93512	173.35114	-882.61554	296.10699	144.66129	-755.14752	247.36877	573.43817	-640.24689	273.86392	159.85609	-601.67542	274.07639	159.86780	-528.27039	304.15359	146.45328										-724.77802	76.72315	577.29413	-794.32678	32.47527	175.94067																			-721.29468	143.87729	219.74358													-518.02399	-72.97726	142.95824	
92	1.820				-738.00653	275.16049	741.32159										-876.14905	-78.79788	141.54057	-688.03796	20.76459	525.76697				-678.76563	155.63330	159.01974							-547.26910	212.50418	163.14442													-795.85822	181.59000	184.87904	-762.11395	225.51476	204.42807	-589.21912	182.83356	173.44896	-882.52777	296.18381	144.63087	-755.50269	247.64116	573.38135	-640.24689	273.86392	159.85609	-601.77789	274.03214	159.81961	-528.24188	304.07635	146.21542										-726.20612	77.01132	577.28314	-794.19318	32.43000	175.97620																			-721.20313	143.96771	219.91553													-517.74890	-72.84532	143.16844	
93	1.840				-739.19293	275.35809	741.22565										-876.12219	-78.89765	141.41621	-688.64880	20.63645	525.73688				-678.65045	155.75690	159.11520							-547.06848	212.46992	163.22217													-795.89569	181.98654	184.60434	-762.04346	225.53786	204.46185	-589.21912	182.83356	173.44896	-882.73712	295.93707	144.39511	-756.66760	247.56905	573.23700	-640.24689	273.86392	159.85609	-601.67542	274.07639	159.86780	-528.31232	303.94855	146.23056										-726.96503	76.79860	577.30286	-794.19318	32.43000	175.97620																			-721.07593	143.95537	220.07790													-517.99066	-73.04592	143.03880	
94	1.860				-740.14404	275.46979	741.25684										-876.12219	-78.89765	141.41621	-689.11731	20.63966	526.25977				-678.76563	155.63330	159.01974							-547.24231	212.55728	163.03577													-795.94171	181.78812	184.48973	-762.10028	225.74841	204.36852	-589.21912	182.83356	173.44896	-882.69641	295.99887	144.54427	-756.97522	248.63193	573.86407	-640.27930	273.96136	159.76814	-601.70563	274.04019	159.76009	-528.20984	304.20206	146.31906										-728.09338	76.80273	577.10852	-794.22363	32.35717	175.77516																			-721.07593	143.95537	220.07790													-517.99066	-73.04592	143.03880	
95	1.880				-741.30432	275.63101	741.30847										-876.12219	-78.89765	141.41621	-690.38672	20.56348	526.04205				-678.65045	155.75690	159.11520							-547.21149	212.40219	163.16927													-796.03748	181.90994	184.57556	-762.10028	225.74841	204.36852	-589.27563	182.68710	173.35394	-882.59009	295.93652	144.44270	-757.65497	248.83688	574.02173	-640.24689	273.86392	159.85609	-601.68719	274.03531	159.80234	-528.30585	304.11691	146.33821										-728.82428	76.71175	577.08185	-794.19318	32.43000	175.97620																			-721.20313	143.96771	219.91553													-517.94177	-72.92817	143.09164	
96	1.900				-742.88562	275.74304	741.08521										-876.14905	-78.79788	141.54057	-691.01746	20.66844	526.11670				-678.65045	155.75690	159.11520							-547.25696	212.30656	163.07060													-796.09570	182.00822	184.48137	-762.33472	225.75111	204.80650	-589.22412	182.63022	173.36304	-882.50006	296.18253	144.69447	-758.54047	248.80357	573.80988	-640.23901	273.79056	159.96155	-601.58472	274.07956	159.85051	-528.21765	304.42685	146.42503										-729.67694	76.95787	577.59558	-794.18268	32.36225	175.90697																			-721.07593	143.95537	220.07790													-517.99066	-73.04592	143.03880	
97	1.920				-744.27576	275.63928	740.91638										-876.12219	-78.89765	141.41621	-691.55243	20.63321	526.38037				-678.65045	155.75690	159.11520							-547.24054	212.55872	163.22533													-796.00378	182.12704	184.19888	-762.29315	225.66693	204.19748	-589.40881	182.79146	173.18694	-882.57764	296.19299	144.67506	-760.00659	247.46080	572.90192	-640.24689	273.86392	159.85609	-601.77789	274.03214	159.81961	-528.38629	304.16528	146.36487										-730.80896	76.71338	577.20313	-794.29742	32.10200	175.97833																			-721.31738	143.78964	219.91719													-517.99066	-73.04592	143.03880	
98	1.940				-745.44275	276.04416	740.74493										-875.05005	-78.77908	140.71378	-692.98450	20.72085	526.17352				-678.65045	155.75690	159.11520							-547.36609	212.35950	163.19278				-739.10907	139.66957	573.21320							-796.05792	182.04691	184.18695	-762.51361	225.85469	204.53433	-589.37720	182.63144	173.18082	-882.67108	296.04764	144.50079	-760.17078	248.51808	573.45526	-640.23901	273.79056	159.96155	-601.77789	274.03214	159.81961	-528.16870	304.17886	146.32680										-731.80713	76.77586	577.15637	-794.48761	32.24746	175.82153																			-721.46381	143.68509	219.81622													-517.94177	-72.92817	143.09164	
99	1.960				-746.64655	275.78210	740.36249										-875.05005	-78.77908	140.71378	-693.42303	20.75798	526.27917				-678.76526	155.83760	159.25969							-547.52393	212.36188	163.13142													-796.09229	182.14650	184.14268	-762.72015	225.89749	204.42769	-589.17340	182.39043	173.16411	-882.57111	296.04724	144.60146	-762.21893	247.50108	572.81604	-640.24689	273.86392	159.85609	-601.84033	274.01337	159.88669	-528.09161	304.19278	146.49210										-732.46094	76.68535	577.29681	-794.39612	32.39542	175.66982																			-721.86810	143.93178	219.59018													-517.92590	-72.87240	142.99782	
100	1.980				-747.91058	276.28687	740.72913										-875.06354	-78.87967	140.61981	-694.02698	20.47870	526.54968				-679.01379	155.75970	159.27560							-547.45813	212.38614	163.07092													-796.25916	182.12671	184.06737	-762.81036	225.87886	204.60434	-589.19775	182.44875	173.08330	-882.55206	296.03354	144.56734	-762.50317	248.79323	573.57410	-640.27960	273.65048	159.92311	-601.77789	274.03214	159.81961	-528.23907	304.05109	146.34192										-733.36731	76.77422	577.32971	-794.44440	32.25450	175.66785																			-722.04364	144.10793	219.58076													-517.91980	-73.01032	143.17534	
101	2.000				-748.85785	276.38232	740.51587										-875.62457	-78.84138	140.80528	-694.07947	20.55816	526.56769				-679.22919	155.97664	158.99257							-547.52393	212.36188	163.13142				-741.45569	140.02621	573.32056							-796.45544	181.87633	184.32088	-762.72015	225.89749	204.42769	-589.26617	182.38632	172.96498	-882.61115	295.92255	144.45959	-762.90967	248.95004	573.41693	-640.24689	273.86392	159.85609	-601.85822	274.11002	159.67284	-528.19678	303.96454	146.27711										-733.67908	76.79079	577.12701	-794.41132	32.09877	175.62456																			-722.04364	144.10793	219.58076													-517.95569	-72.80466	142.91631	
102	2.020				-750.10858	276.07355	740.10101										-875.36108	-78.47275	140.46007	-694.62659	20.86285	526.41614				-679.31342	155.88620	159.21478							-547.52393	212.36188	163.13142													-796.41858	182.11305	184.11967	-762.84344	225.89389	204.52141	-589.36560	182.46629	172.87871	-882.65240	296.02905	144.56604	-763.82947	248.41499	572.95056	-640.24500	273.67307	159.80261	-601.84033	274.01337	159.88669	-528.19678	303.96454	146.27711										-734.31909	76.66393	577.03467	-794.42975	32.21477	175.73372																			-722.22443	144.03957	219.94212													-517.99066	-73.04592	143.03880	
